<?xml version="1.0" standalone="no"?><!DOCTYPE svg PUBLIC "-//W3C//DTD SVG 1.1//EN" "http://www.w3.org/Graphics/SVG/1.1/DTD/svg11.dtd"><svg t="1758018024652" class="icon" viewBox="0 0 1024 1024" version="1.1" xmlns="http://www.w3.org/2000/svg" p-id="16438" xmlns:xlink="http://www.w3.org/1999/xlink" width="200" height="200"><path d="M521.27989812 992h-21.83505468c-10.91752688-7.51125844-24.01855969-8.95237219-36.24619031-12.53332125q-160.61866031-46.81435688-321.36832969-93.10467187c-8.03530031-31.48614844 4.36701094-54.98066719 26.20206562-77.20875188 20.91798187-21.26734313 28.69126125-46.59600563 24.41159063-78.86821688-3.53727844-26.55142594-3.62461875-54.107265-6.9872175-81.09539156-1.04808281-8.42833125-1.31010281-18.69080625 7.03088718-23.80020937 11.00486719-6.72519656 12.79534219 9.1707225 21.00532219 10.48082625a2.53286625 2.53286625 0 0 1 0.9607425 2.48919656c0.39303094 25.54701375 8.99604281 46.72701656 32.09752969 60.17740969 75.76763906 100.44124969 175.07346563 148.47837 301.80412219 136.60009969 215.9923575-20.48128125 348.61847813-258.09034219 253.94168156-454.86785251-34.41204562-71.53163813-88.78133062-122.27630437-159.52690688-156.90670031 24.80462156-10.48082625 49.43456344-15.28453781 75.11258719-1.70313469 8.73402187 4.67270156 20.17559063 9.73843406 29.25897281 5.63344407 26.20206562-11.92194 35.24177813 2.57653687 48.03711938 22.18441593 26.20206562 40.04548969 61.13815219 35.59113844 81.05172187-7.72960968a60.30841969 60.30841969 0 0 1 2.48919657-6.026475c13.66874437-23.05781719 29.47732313-44.28149062 52.40413031-59.3040075q0.56771156 307.56857531 1.52845312 615.13715156c0 13.49406375-7.42391813 17.07501281-16.98767156 21.3546825q-137.16781125 61.13815219-274.20461343 122.27630437c-40.35118031 18.25410563-82.318155 33.18928219-120.18013876 56.81481188z" fill="#2B83DC" p-id="16439"></path><path d="M213.40563125 635.87026344c-8.20998-1.31010281-10.000455-17.20602281-21.00532219-10.48082625-8.34099094 5.10940313-8.07897 15.37187813-7.03088718 23.80020937 3.36259875 26.9881275 3.44993812 54.54396562 6.9872175 81.09539156 4.36701094 32.27221031-3.49360875 57.60087375-24.41159063 78.86821688-21.83505469 22.22808562-34.32470531 45.72260344-26.20206562 77.20875187-6.33216563-1.22276344-12.66433125-2.70754687-19.04016751-3.58094906C99.16462719 879.20010875 91.12932688 867.97689125 91.12932688 842.25519687c1.83414469-200.48946937 1.87781438-400.97893781 1.83414468-601.46840718 0-15.93958969 4.36701094-24.28058062 19.56420938-30.96210656 84.37065-36.81390187 168.52294969-74.239185 252.02019656-112.93090125C411.01287312 75.32074813 459.48669406 58.20206562 503.81185438 32h17.46804375c10.91752688 7.55492906 24.01855969 9.21439312 36.46454062 12.70800187 117.90929344 33.62598375 235.38188625 67.42664812 353.42218969 99.78619782 19.30218844 5.32775344 24.84829219 14.01810469 20.04458062 31.92285-22.79579719 15.02251781-38.60437594 36.24619031-52.40413125 59.3040075a60.30841969 60.30841969 0 0 0-2.48919562 6.026475C856.66633344 285.28663062 821.73024594 289.65364156 795.39717031 249.47714187c-13.10103281-19.60787906-22.09707469-34.106355-48.03711937-22.18441593-9.08338219 4.10499-20.43761063-0.9607425-29.25897281-5.63344407-25.67802375-13.58140406-50.30796563-8.73402187-75.06891657 1.70313469-6.8562075-2.27084531-13.66874437-4.67270156-20.52495187-6.81253687-120.87886125-37.51262344-231.45157594-21.83505469-326.6524125 65.89819406-64.19505937 58.99831688-99.13114687 132.66979031-102.93044625 220.79606906-1.96515469 45.85361437 7.38024844 89.4363825 20.48128031 132.62612063z" fill="#58A4F0" p-id="16440"></path><path d="M214.54105438 638.35946l32.09752968 60.17740969c-23.10148781-13.45039312-31.70449875-34.63039594-32.09752968-60.17740969z" fill="#58A4F0" p-id="16441"></path><path d="M764.82809469 510.71173156c-4.9347225 98.69444531-45.85361437 177.43165219-135.37733719 223.59095719-88.03893937 45.37324312-175.77218719 40.43852063-259.05108469-14.9351775-30.56907656-20.35027031-30.56907656-27.55583906-3.36259875-53.10285188a165.94641281 165.94641281 0 0 0 14.23645594-13.40672343c26.90078719-31.92284906 25.15398281-52.05477-7.20556875-72.97275188C348.78296844 563.68357344 325.24478 547.30728312 296.37883813 538.00554969c-33.80066438-10.74284719-44.93654156-41.48660344-31.83550875-75.15625688 3.79929937-9.73843406 11.17954781-7.46758875 17.99208468-7.77327937 33.62598375-1.39744313 35.3291175-2.052495 40.39485-34.9360875a54.28194469 54.28194469 0 0 1 26.72610657-39.91447875c33.49497375-21.39835312 37.86198469-32.79625125 27.25014843-72.14302032-2.09616563-7.68593906 0.30569063-10.48082625 5.80812375-13.71241406 46.85802656-27.55583906 96.77296125-40.96256156 151.40426719-33.4076325 10.61183625 1.48478344 21.83505469 0 31.83550969 3.36259782s26.9881275-0.65505187 29.12796187 16.8566625 2.70754687 35.24177813-16.81299187 45.3295725a43.23340781 43.23340781 0 0 0-24.23691 29.25897281c-6.07014469 25.54701375 2.53286625 38.080335 28.73493187 37.77464437 20.61229125-0.26202094 38.51703562 4.10499 51.79274813 20.74330125 4.10499 5.15307281 7.03088719 11.17954781 3.58094906 18.079425-3.79929937 7.64226938-10.61183625 6.28849594-17.1186825 5.32775344a175.55383688 175.55383688 0 0 1-21.39835312-3.84297c-40.78788188-11.52890906-69.87217406 6.9872175-96.07423875 35.67847969-20.13192 22.31542594-21.00532219 46.72701656-10.65550688 72.97275094a32.66524125 32.66524125 0 0 0 28.03620938 21.22367343c7.16189812 0.87340219 14.49847594 0.56771156 21.83505468 1.00441219 34.93608656 2.052495 41.0935725 10.48082625 31.57348875 44.06313938a117.90929344 117.90929344 0 0 0 1.31010282 66.64058625c6.11381531 20.78697187 20.65596187 26.81344688 35.72214937 12.53332125 29.78301375-28.21089 62.01155437-55.67938875 66.72792563-100.96529157 1.35377344-13.10103281 10.21880531-22.09707469 18.51612656-31.31146781 22.44643594-25.0666425 23.66919938-31.35513844 8.12263969-61.79320406-6.94354688-13.53773344-7.86061969-20.52495094 10.78651687-16.85666156 14.01810469 2.79488719 19.52053875-4.36701094 20.87431219-17.73006469 0.74239219-7.38024844 1.22276344-17.46804375 12.09662062-18.079425 12.66433125-0.61138125 8.73402187 11.44156875 11.04853688 17.77373437a112.97457094 112.97457094 0 0 1 4.97839312 27.77418938c0.91707187 8.12264062 0.30569063 15.93958969 0.30569063 23.93121937z" fill="#2B83DC" p-id="16442"></path></svg>