<?xml version="1.0" standalone="no"?><!DOCTYPE svg PUBLIC "-//W3C//DTD SVG 1.1//EN" "http://www.w3.org/Graphics/SVG/1.1/DTD/svg11.dtd"><svg t="1758018039130" class="icon" viewBox="0 0 1024 1024" version="1.1" xmlns="http://www.w3.org/2000/svg" p-id="17462" xmlns:xlink="http://www.w3.org/1999/xlink" width="200" height="200"><path d="M549.536 554.912v155.744l-128.16-130.048v-149.12h152.832l121.693 123.424z m464.48 324.544V1024h-155.9L613.632 772.256V620.8h143.1z m-462.015-61.792L695.872 961.5c-55.84 18.848-109.088 30.976-184.544 30.976C219.136 992.448 0.001 778.368 0.001 493.44 0.001 209.92 219.136 0 511.328 0c293.536 0 512.673 211.3 512.673 493.44 0 90.464-22.3 173.92-62.176 245.728L807.168 580.224a349.95 349.95 0 0 0 10.24-85.024v-0.512c0-183.072-134.3-321.152-302.944-321.152-168.7 0-309.248 138.08-309.248 321.152s142.085 324.256 309.216 324.256c23.392 0 28.192 0.736 37.536-1.28z" fill="#589632" p-id="17463"></path></svg>